HIERARCHY
ROOT hip
{
  OFFSET 0 0 0
  CHANNELS 6 Xposition Yposition Zposition Yrotation Xrotation Zrotation
  JOINT chest
  {
    OFFSET 0 0 0
    CHANNELS 6 Xposition Yposition Zposition Yrotation Xrotation Zrotation
    JOINT head
    {
      OFFSET 0 0 0
      CHANNELS 6 Xposition Yposition Zposition Yrotation Xrotation Zrotation
      EndSite
      {
        OFFSET 0 0 0
      }
    }

    JOINT lHand
    {
      OFFSET 0 0 0
      CHANNELS 6 Xposition Yposition Zposition Yrotation Xrotation Zrotation
      EndSite
      {
        OFFSET 0 0 0
      }
    }



    JOINT rHand
    {
      OFFSET 0 0 0
      CHANNELS 6 Xposition Yposition Zposition Yrotation Xrotation Zrotation
      EndSite
      {
        OFFSET 0 0 0
      }
    }



  }


  JOINT lFoot
  {
    OFFSET 0 0 0
    CHANNELS 6 Xposition Yposition Zposition Yrotation Xrotation Zrotation
    EndSite
    {
      OFFSET 0 0 0
    }
  }


  JOINT rFoot
  {
    OFFSET 0 0 0
    CHANNELS 6 Xposition Yposition Zposition Yrotation Xrotation Zrotation
    EndSite
    {
      OFFSET 0 0 0
    }
  }


}

MOTION
Frames: 11
Frame Time: 0.1
0.000000 105.864700 -0.295657 0.000000 0.000000 0.000000 0.000000 127.272800 -3.404905 0.000000 359.861000 0.000000 0.000000 162.202500 -2.025626 0.000000 1.000078 0.000000 22.545940 97.674580 -1.347800 -6.660519 339.465100 -59.464940 -32.719670 91.889160 -1.142937 -332.303500 352.959100 -299.805200 10.875840 6.367671 -2.719793 -345.188400 18.424540 -357.584700 -10.875840 6.367671 -2.719793 -14.811640 18.424540 -2.415332 
0.049514 105.274600 2.115977 -359.891800 1.323830 -359.894100 0.026312 127.488800 -1.395203 -359.964900 359.731800 -0.366765 0.000000 162.160500 0.377247 0.000000 0.945303 0.000000 22.390250 97.325910 1.544006 -6.756869 340.620100 -62.440590 -32.317410 92.269090 0.691187 -332.929200 352.676200 -297.188000 12.213320 6.602554 -0.386406 -347.181500 21.666650 -359.708100 -10.953020 6.219347 -2.467037 -15.607160 18.141880 -357.716100 
0.101273 104.625700 4.597861 -359.775000 2.584106 -359.777100 0.054048 127.717100 0.680642 -359.926500 359.594200 -0.758226 -0.000001 162.118500 2.783734 0.000000 0.805333 0.000000 22.223340 96.951840 4.617982 -6.929669 341.853100 -65.615250 -31.863190 92.642290 2.460098 -333.442400 352.449800 -294.397900 13.620160 6.853618 2.086223 -349.533400 25.095250 -2.185261 -10.900080 5.724380 -2.282674 -16.455920 17.545800 -352.309700 
0.154315 103.943300 7.119889 -359.652100 3.807231 -359.652500 0.082598 127.952200 2.794286 -359.885800 359.452000 -1.163863 -0.000001 162.076500 5.192284 0.000000 0.616706 0.000000 22.050010 96.563220 7.796055 -7.183774 343.124800 -68.900920 -31.379270 93.011620 4.191743 -333.894300 352.262900 -291.507800 15.066620 7.113925 4.638418 -352.243300 28.575900 -5.015776 -10.772770 5.031327 -2.137392 -17.390720 16.814380 -346.498800 
0.207678 103.252500 9.651953 -359.525500 5.020251 -359.523900 0.111352 128.189100 4.917378 -359.843600 359.308800 -1.573142 -0.000002 162.034400 7.601351 0.000000 0.415948 0.000000 21.875080 96.170960 11.000150 -7.515735 344.395000 -72.209180 -30.887940 93.380000 5.914073 -334.337300 352.102100 -288.590300 16.522990 7.376545 7.210505 -355.290600 31.972620 -8.179906 -10.626870 4.288754 -2.001880 -18.406470 16.124600 -340.593700 
0.260399 102.578400 12.163940 -359.397700 6.250739 -359.394800 0.139698 128.422500 7.021572 -359.801200 359.168400 -1.975517 -0.000002 161.992400 10.009390 0.000000 0.239559 0.000000 21.703350 95.785960 14.152200 -7.913691 345.624500 -75.451970 -30.411450 93.750290 7.655034 -334.824900 351.957900 -285.716400 17.959540 7.634542 9.742808 -358.624100 35.156130 -11.627120 -10.518160 3.645222 -1.846828 -19.457790 15.640020 -334.898000 
0.311516 101.946300 14.625760 -359.271100 7.526745 -359.268700 0.167028 128.647200 9.078519 -359.759800 359.034400 -2.360425 -0.000003 161.950400 12.414840 0.000000 0.124012 0.000000 21.539640 95.419140 17.174130 -8.358102 346.777200 -78.542350 -29.972070 94.125400 9.442577 -335.411200 351.825100 -282.955100 19.346560 7.880981 12.175650 -2.150339 38.013510 -15.265010 -10.502390 3.249295 -1.642923 -20.468400 15.500830 -329.695400 
0.360068 101.381400 17.007280 -359.148100 8.876791 -359.148900 0.192729 128.858100 11.059870 -359.720500 358.910400 -2.717301 -0.000003 161.908500 14.816160 0.000000 0.105770 0.000000 21.388770 95.081400 19.987860 -8.823180 347.820600 -81.395060 -29.592080 94.508230 11.304650 -336.150800 351.701800 -280.373000 20.654330 8.108931 14.449370 -5.726914 40.457660 -18.952150 -10.635350 3.249535 -1.360857 -21.347430 15.822380 -325.242500 
0.405091 100.908800 19.278410 -359.031100 10.329900 -359.038800 0.216192 129.049800 12.937290 -359.684900 358.800100 -3.035567 -0.000004 161.866600 17.211810 0.000000 0.221318 0.000000 21.255550 94.783630 22.515330 -9.278770 348.727500 -83.927040 -29.293740 94.901650 13.269200 -337.098600 351.588300 -278.034200 21.853120 8.311458 16.504270 -9.163229 42.433720 -22.499200 -10.972790 3.794505 -0.971316 -22.007310 16.704290 -321.769700 
0.445624 100.553700 21.409040 -358.922700 11.915660 -358.941800 0.236806 129.217200 14.682410 -359.654300 358.707000 -3.304646 -0.000004 161.824900 19.600230 0.000000 0.507205 0.000000 21.144780 94.536740 24.678450 -9.692382 349.474800 -86.057590 -29.099330 95.308560 15.364180 -338.310100 351.484800 -276.000300 22.913220 8.481626 18.280690 -12.232550 43.919400 -25.680730 -11.570510 5.032768 -0.444990 -22.380000 18.248200 -319.492600 
0.480705 100.341300 23.369060 -358.825500 13.664300 -358.861400 0.253961 129.355100 16.266890 -359.630200 358.634700 -3.513957 -0.000004 161.783400 21.979880 0.000000 1.000094 0.000000 21.061280 94.351620 26.399160 -10.031230 350.042900 -87.707760 -29.031110 95.731840 17.617540 -339.842200 351.389300 -274.331300 23.804900 8.612502 19.718950 -14.692790 44.917590 -28.256100 -12.484250 7.112886 0.247432 -22.433580 20.580290 -318.634300 
